HIERARCHY
ROOT Root
{
  OFFSET 0.0 0.0 0.0
  CHANNELS 6 Xposition Yposition Zposition Zrotation Yrotation Xrotation
  JOINT Hips
  {
    OFFSET 0.0 100.0 0.0
    CHANNELS 6 Xposition Yposition Zposition Zrotation Yrotation Xrotation
    JOINT Spine1
    {
      OFFSET -0.013727 5.003763 -0.053727
      CHANNELS 3 Zrotation Yrotation Xrotation
      JOINT Spine2
      {
        OFFSET -0.0 7.125301 -0.029825
        CHANNELS 3 Zrotation Yrotation Xrotation
        JOINT Chest
        {
          OFFSET -1e-06 7.550063 -0.815971
          CHANNELS 3 Zrotation Yrotation Xrotation
          JOINT Neck1
          {
            OFFSET -0.181677 26.311295 -0.553348
            CHANNELS 3 Zrotation Yrotation Xrotation
            JOINT Neck2
            {
              OFFSET -3e-06 7.709397 2.302585
              CHANNELS 3 Zrotation Yrotation Xrotation
              JOINT Head
              {
                OFFSET -5e-06 6.128916 1.953709
                CHANNELS 3 Zrotation Yrotation Xrotation
                JOINT HeadEnd
                {
                  OFFSET 0.003598 16.065403 -1.835379
                  CHANNELS 3 Zrotation Yrotation Xrotation
                }
                JOINT Jaw
                {
                  OFFSET 0.002637 0.475592 3.094941
                  CHANNELS 3 Zrotation Yrotation Xrotation
                }
                JOINT LeftEye
                {
                  OFFSET 3.206381 5.380205 7.586883
                  CHANNELS 3 Zrotation Yrotation Xrotation
                }
                JOINT RightEye
                {
                  OFFSET -3.22244 5.361869 7.558234
                  CHANNELS 3 Zrotation Yrotation Xrotation
                }
              }
            }
          }
          JOINT LeftShoulder
          {
            OFFSET 1.621652 23.237164 5.113413
            CHANNELS 3 Zrotation Yrotation Xrotation
            JOINT LeftArm
            {
              OFFSET 14.919846 2e-06 -5.502326
              CHANNELS 3 Zrotation Yrotation Xrotation
              JOINT LeftForeArm
              {
                OFFSET 28.739307 0.0 -0.002588
                CHANNELS 3 Zrotation Yrotation Xrotation
                JOINT LeftHand
                {
                  OFFSET 27.093981 -1e-06 0.002609
                  CHANNELS 3 Zrotation Yrotation Xrotation
                  JOINT LeftHandThumb1
                  {
                    OFFSET 2.276482 -1.392045 3.191413
                    CHANNELS 3 Zrotation Yrotation Xrotation
                    JOINT LeftHandThumb2
                    {
                      OFFSET 4.012836 -1.828127 1.641654
                      CHANNELS 3 Zrotation Yrotation Xrotation
                      JOINT LeftHandThumb3
                      {
                        OFFSET 2.798515 0.0 -3e-06
                        CHANNELS 3 Zrotation Yrotation Xrotation
                        JOINT LeftHandThumbEnd
                        {
                          OFFSET 3.180793 -4e-06 4e-06
                          CHANNELS 3 Zrotation Yrotation Xrotation
                        }
                      }
                    }
                  }
                  JOINT LeftHandIndex1
                  {
                    OFFSET 3.247555 -0.531998 2.296169
                    CHANNELS 3 Zrotation Yrotation Xrotation
                    JOINT LeftHandIndex2
                    {
                      OFFSET 6.364578 0.01206 0.1786
                      CHANNELS 3 Zrotation Yrotation Xrotation
                      JOINT LeftHandIndex3
                      {
                        OFFSET 3.662364 0.0 0.0
                        CHANNELS 3 Zrotation Yrotation Xrotation
                        JOINT LeftHandIndex4
                        {
                          OFFSET 2.329242 4e-06 4e-06
                          CHANNELS 3 Zrotation Yrotation Xrotation
                          JOINT LeftHandIndexEnd
                          {
                            OFFSET 2.759615 -0.180537 -0.113024
                            CHANNELS 3 Zrotation Yrotation Xrotation
                          }
                        }
                      }
                    }
                  }
                  JOINT LeftHandMiddle1
                  {
                    OFFSET 3.163495 0.240981 1.000332
                    CHANNELS 3 Zrotation Yrotation Xrotation
                    JOINT LeftHandMiddle2
                    {
                      OFFSET 6.19078 -0.259278 -1.002548
                      CHANNELS 3 Zrotation Yrotation Xrotation
                      JOINT LeftHandMiddle3
                      {
                        OFFSET 4.35652 -4e-06 -1e-06
                        CHANNELS 3 Zrotation Yrotation Xrotation
                        JOINT LeftHandMiddle4
                        {
                          OFFSET 2.996877 -8e-06 0.0
                          CHANNELS 3 Zrotation Yrotation Xrotation
                          JOINT LeftHandMiddleEnd
                          {
                            OFFSET 2.304287 -0.294569 -0.031741
                            CHANNELS 3 Zrotation Yrotation Xrotation
                          }
                        }
                      }
                    }
                  }
                  JOINT LeftHandRing1
                  {
                    OFFSET 2.882643 -0.053652 -0.322543
                    CHANNELS 3 Zrotation Yrotation Xrotation
                    JOINT LeftHandRing2
                    {
                      OFFSET 5.854541 -0.486202 -1.373841
                      CHANNELS 3 Zrotation Yrotation Xrotation
                      JOINT LeftHandRing3
                      {
                        OFFSET 4.350578 0.0 3e-06
                        CHANNELS 3 Zrotation Yrotation Xrotation
                        JOINT LeftHandRing4
                        {
                          OFFSET 2.651321 7e-06 2e-06
                          CHANNELS 3 Zrotation Yrotation Xrotation
                          JOINT LeftHandRingEnd
                          {
                            OFFSET 1.936105 0.077687 -7.1e-05
                            CHANNELS 3 Zrotation Yrotation Xrotation
                          }
                        }
                      }
                    }
                  }
                  JOINT LeftHandPinky1
                  {
                    OFFSET 2.8655 -0.310005 -1.600378
                    CHANNELS 3 Zrotation Yrotation Xrotation
                    JOINT LeftHandPinky2
                    {
                      OFFSET 5.087849 -1.331141 -1.77123
                      CHANNELS 3 Zrotation Yrotation Xrotation
                      JOINT LeftHandPinky3
                      {
                        OFFSET 3.070974 4e-06 0.0
                        CHANNELS 3 Zrotation Yrotation Xrotation
                        JOINT LeftHandPinky4
                        {
                          OFFSET 1.549672 0.0 1e-06
                          CHANNELS 3 Zrotation Yrotation Xrotation
                          JOINT LeftHandPinkyEnd
                          {
                            OFFSET 1.944893 -0.157802 0.057219
                            CHANNELS 3 Zrotation Yrotation Xrotation
                          }
                        }
                      }
                    }
                  }
                }
              }
            }
          }
          JOINT RightShoulder
          {
            OFFSET -1.380118 23.180309 5.214158
            CHANNELS 3 Zrotation Yrotation Xrotation
            JOINT RightArm
            {
              OFFSET -15.037196 1.2e-05 -5.545604
              CHANNELS 3 Zrotation Yrotation Xrotation
              JOINT RightForeArm
              {
                OFFSET -28.736639 2e-06 -0.002597
                CHANNELS 3 Zrotation Yrotation Xrotation
                JOINT RightHand
                {
                  OFFSET -27.133619 -0.0 0.002613
                  CHANNELS 3 Zrotation Yrotation Xrotation
                  JOINT RightHandThumb1
                  {
                    OFFSET -2.274032 -1.383988 3.163127
                    CHANNELS 3 Zrotation Yrotation Xrotation
                    JOINT RightHandThumb2
                    {
                      OFFSET -4.011429 -1.827466 1.640914
                      CHANNELS 3 Zrotation Yrotation Xrotation
                      JOINT RightHandThumb3
                      {
                        OFFSET -2.794935 -4e-06 -3e-06
                        CHANNELS 3 Zrotation Yrotation Xrotation
                        JOINT RightHandThumbEnd
                        {
                          OFFSET -3.183852 4e-06 1e-06
                          CHANNELS 3 Zrotation Yrotation Xrotation
                        }
                      }
                    }
                  }
                  JOINT RightHandIndex1
                  {
                    OFFSET -3.253266 -0.520057 2.282866
                    CHANNELS 3 Zrotation Yrotation Xrotation
                    JOINT RightHandIndex2
                    {
                      OFFSET -6.341917 0.012471 0.178266
                      CHANNELS 3 Zrotation Yrotation Xrotation
                      JOINT RightHandIndex3
                      {
                        OFFSET -3.654871 -8e-06 -0.0
                        CHANNELS 3 Zrotation Yrotation Xrotation
                        JOINT RightHandIndex4
                        {
                          OFFSET -2.327586 0.0 1e-06
                          CHANNELS 3 Zrotation Yrotation Xrotation
                          JOINT RightHandIndexEnd
                          {
                            OFFSET -2.76179 -0.180656 -0.113078
                            CHANNELS 3 Zrotation Yrotation Xrotation
                          }
                        }
                      }
                    }
                  }
                  JOINT RightHandMiddle1
                  {
                    OFFSET -3.168106 0.246593 1.00103
                    CHANNELS 3 Zrotation Yrotation Xrotation
                    JOINT RightHandMiddle2
                    {
                      OFFSET -6.180828 -0.258836 -1.000895
                      CHANNELS 3 Zrotation Yrotation Xrotation
                      JOINT RightHandMiddle3
                      {
                        OFFSET -4.348901 0.0 -0.0
                        CHANNELS 3 Zrotation Yrotation Xrotation
                        JOINT RightHandMiddle4
                        {
                          OFFSET -3.00024 -4e-06 -2e-06
                          CHANNELS 3 Zrotation Yrotation Xrotation
                          JOINT RightHandMiddleEnd
                          {
                            OFFSET -2.30252 -0.29437 -0.031706
                            CHANNELS 3 Zrotation Yrotation Xrotation
                          }
                        }
                      }
                    }
                  }
                  JOINT RightHandRing1
                  {
                    OFFSET -2.88569 -0.067952 -0.308858
                    CHANNELS 3 Zrotation Yrotation Xrotation
                    JOINT RightHandRing2
                    {
                      OFFSET -5.854198 -0.48613 -1.373731
                      CHANNELS 3 Zrotation Yrotation Xrotation
                      JOINT RightHandRing3
                      {
                        OFFSET -4.33881 -4e-06 -0.0
                        CHANNELS 3 Zrotation Yrotation Xrotation
                        JOINT RightHandRing4
                        {
                          OFFSET -2.654903 -4e-06 4e-06
                          CHANNELS 3 Zrotation Yrotation Xrotation
                          JOINT RightHandRingEnd
                          {
                            OFFSET -1.933568 0.077527 -5.2e-05
                            CHANNELS 3 Zrotation Yrotation Xrotation
                          }
                        }
                      }
                    }
                  }
                  JOINT RightHandPinky1
                  {
                    OFFSET -2.866425 -0.342796 -1.584145
                    CHANNELS 3 Zrotation Yrotation Xrotation
                    JOINT RightHandPinky2
                    {
                      OFFSET -5.091371 -1.332055 -1.772385
                      CHANNELS 3 Zrotation Yrotation Xrotation
                      JOINT RightHandPinky3
                      {
                        OFFSET -3.062664 -4e-06 1e-06
                        CHANNELS 3 Zrotation Yrotation Xrotation
                        JOINT RightHandPinky4
                        {
                          OFFSET -1.546529 4e-06 -2e-06
                          CHANNELS 3 Zrotation Yrotation Xrotation
                          JOINT RightHandPinkyEnd
                          {
                            OFFSET -1.945119 -0.157718 0.057211
                            CHANNELS 3 Zrotation Yrotation Xrotation
                          }
                        }
                      }
                    }
                  }
                }
              }
            }
          }
        }
      }
    }
    JOINT LeftLeg
    {
      OFFSET 10.043214 -8.434526 2.595655
      CHANNELS 3 Zrotation Yrotation Xrotation
      JOINT LeftShin
      {
        OFFSET -1e-06 -43.221752 -0.802913
        CHANNELS 3 Zrotation Yrotation Xrotation
        JOINT LeftFoot
        {
          OFFSET 1e-06 -42.155094 -3.481523
          CHANNELS 3 Zrotation Yrotation Xrotation
          JOINT LeftToeBase
          {
            OFFSET 0.0 -5.059472 13.231529
            CHANNELS 3 Zrotation Yrotation Xrotation
            JOINT LeftToeEnd
            {
              OFFSET -0.009607 -1.647619 6.513017
              CHANNELS 3 Zrotation Yrotation Xrotation
            }
          }
        }
      }
    }
    JOINT RightLeg
    {
      OFFSET -10.047278 -8.29526 2.620317
      CHANNELS 3 Zrotation Yrotation Xrotation
      JOINT RightShin
      {
        OFFSET 1e-06 -43.362206 -0.805556
        CHANNELS 3 Zrotation Yrotation Xrotation
        JOINT RightFoot
        {
          OFFSET 2e-06 -42.117393 -3.478398
          CHANNELS 3 Zrotation Yrotation Xrotation
          JOINT RightToeBase
          {
            OFFSET -0.0 -5.079609 13.284196
            CHANNELS 3 Zrotation Yrotation Xrotation
            JOINT RightToeEnd
            {
              OFFSET 0.009532 -1.634378 6.460591
              CHANNELS 3 Zrotation Yrotation Xrotation
            }
          }
        }
      }
    }
  }
}
MOTION
Frames: 5
Frame Time: 0.03333333333333333
0.0 0.0 0.0 0.0 -0.0 0.0 4.210016 101.360977 164.056244 4.763866 7.503663 -0.999892 -0.302085 0.490002 3.411058 -0.786886 0.328096 1.310868 -3.513064 38.493534 71.482246 1.352865 0.335706 5.744932 -1.075974 -0.410676 -0.692659 1.720172 -1.222568 -3.573815 7.7e-05 -2.2e-05 6e-06 0.273562 0.016544 -0.022518 0.225337 -0.605525 -1.39922 0.311794 0.556462 -1.398853 1.836616 3.432205 2.508997 29.378338 12.16736 -36.930893 4.697658 4.782864 0.804558 9.561607 16.979097 -6.018113 -5.882108 9.861287 0.70259 -10.936873 -0.360574 7.156209 -0.0 8.774826 -2e-06 -2.112521 2.971907 1.198784 -1.844033 2.498507 -2.507278 -10.163599 4.678946 4.621109 -20.97603 -3e-06 2e-06 -21.226292 2.451697 -3.594001 0.0 -8e-06 -0.0 -1.362682 2.2408 -0.746324 -21.334921 0.584911 3.008324 -13.82122 -4e-06 2e-06 -23.887178 -0.249081 -0.839483 -9.949777 1.546171 -0.39831 -0.294023 1.679689 0.833256 -14.218212 0.093215 1.300581 -34.212063 -0.287564 0.967169 -20.033218 0.964536 1.212842 -0.0 0.0 0.0 -3.440389 0.788234 0.501656 -15.928187 -3.167309 2.999709 -6.338829 -0.0 2e-06 -18.123449 3.64818 -4.905672 -5e-06 3e-06 -2e-06 -0.886995 4.383686 4.062796 -19.545437 38.21769 -16.181473 2.617683 4.254499 -0.019333 -3.146558 -1.585299 -3.101449 2.243543 -5.255037 -3.180159 14.282896 -0.826596 6.952509 -3e-06 -12.690605 2e-06 2.908039 -2.6309 0.623585 1.665668 -1.955922 -2.8783 4.727801 -4.170588 4.993927 11.020534 3e-06 0.0 12.109058 -3.735715 -2.866785 -0.0 -2e-06 -0.0 1.291988 -1.928548 -1.498089 14.800136 0.567467 3.865611 14.24258 -1.341735 -6.660661 19.631975 0.143927 -0.648243 7.880057 -0.561695 -1.177173 0.353028 -1.51115 -0.031941 20.222803 3.684309 2.316635 18.787285 4e-06 1e-06 10.751635 -0.47987 1.397907 0.0 2e-06 -0.0 3.273808 0.305947 -0.580111 21.486824 11.830376 2.266135 8.162931 -0.0 1e-06 18.399092 -3.798986 -4.940575 3e-06 -0.0 0.0 72.67482 -25.110193 4.256144 -0.096171 -29.152494 -0.243086 -7.517991 -1.530959 -0.473385 0.520154 -0.378312 0.474546 0.0 0.0 2e-06 -18.699129 -9.093417 -5.44318 79.798729 -29.570177 25.699007 10.686624 -6.848339 -11.121054 -0.367238 -0.21908 -1.930888 -0.0 1e-06 -1e-06 
0.0 0.0 0.0 0.0 -0.0 0.0 4.100039 100.854279 166.272354 2.179796 5.065053 -1.364704 -0.306057 0.722425 2.356182 -0.630222 0.229213 1.179603 -1.844171 41.016937 74.436005 1.891092 0.251548 2.467839 -0.677738 -0.465092 -0.493399 1.045725 -0.983123 -2.652702 7.7e-05 -2.2e-05 6e-06 0.241542 -0.010967 -0.029681 0.186895 -0.458825 -0.961522 0.279051 0.360881 -0.977826 1.482562 2.501414 1.872518 34.96772 9.164185 -36.419525 4.072414 4.676476 0.983505 11.896173 16.270466 -2.281232 -5.882106 9.861284 0.70259 -10.936868 -0.360574 7.156206 -2e-06 8.774822 -2e-06 -2.318303 2.275167 0.62552 -1.844032 2.498506 -2.507278 -10.163599 4.678945 4.621108 -20.976021 -2e-06 3e-06 -21.226282 2.451697 -3.594 0.0 -4e-06 0.0 -1.362682 2.240798 -0.746322 -21.334913 0.584911 3.008323 -13.821213 1e-06 2e-06 -23.887165 -0.249077 -0.839483 -7.104408 1.419471 -0.225669 -0.294026 1.679686 0.833256 -14.218207 0.093218 1.300581 -34.212048 -0.287562 0.967169 -20.033211 0.964537 1.212842 0.0 0.0 -1e-06 -3.440389 0.788232 0.501656 -15.928183 -3.167307 2.999709 -6.338827 -2e-06 1e-06 -18.123444 3.648182 -4.905669 -4e-06 1e-06 -2e-06 -0.218203 3.705744 2.154252 -24.399672 41.457756 -19.526739 2.71251 3.623283 -0.055861 -2.725597 -1.194132 -1.812639 2.243543 -5.255033 -3.180157 14.28289 -0.826594 6.952501 -3e-06 -12.690601 -1e-06 1.9026 -1.752156 0.360489 1.665668 -1.955921 -2.878298 4.7278 -4.170584 4.993922 11.020527 3e-06 -2e-06 12.109049 -3.735716 -2.866783 1e-06 -2e-06 -0.0 1.291985 -1.928549 -1.49809 14.800123 0.567468 3.865606 14.242569 -1.341738 -6.660658 19.631962 0.143926 -0.648246 4.976899 -0.312329 -0.755006 0.35303 -1.51115 -0.03194 20.222786 3.684307 2.316627 18.78727 7e-06 -3e-06 10.751624 -0.479868 1.397907 1e-06 1e-06 -0.0 3.273806 0.305948 -0.580111 21.486803 11.830368 2.266131 8.162924 1e-06 -1e-06 18.399076 -3.798982 -4.940576 3e-06 -0.0 -0.0 76.336609 -26.330011 6.395092 0.114325 -30.960445 -0.869942 -6.011304 -2.018626 1.847897 0.441463 -0.120098 0.739945 0.0 -1e-06 2e-06 -18.929996 -6.958506 -3.342917 86.943962 -30.998913 23.872671 8.231726 -4.307442 -7.405234 -0.183571 -0.20866 -1.798435 -0.0 1e-06 -1e-06 
0.0 0.0 0.0 0.0 -0.0 0.0 3.956623 100.467278 168.04686 0.562408 2.654378 -1.279119 -0.376259 0.708863 1.29991 -0.39852 0.161172 0.831333 -0.412683 43.293041 76.950058 1.882153 0.158614 0.633428 -0.245831 -0.391643 -0.261043 -0.070026 -0.766904 -1.834913 7.6e-05 -2.2e-05 6e-06 0.143408 -0.019389 -0.015365 0.099197 -0.286547 -0.525472 0.172473 0.201976 -0.57951 0.743731 1.59944 1.454059 37.786907 3.613241 -34.415459 2.502941 4.317839 0.843004 10.877394 11.063392 1.327646 -5.882107 9.861286 0.70259 -10.936875 -0.360578 7.156209 2e-06 8.774828 -2e-06 -1.673 1.568421 0.043842 -1.84403 2.498507 -2.507277 -10.163604 4.678944 4.62111 -20.97603 -5e-06 2e-06 -21.226295 2.451696 -3.594001 0.0 -6e-06 -1e-06 -1.362683 2.240797 -0.746324 -21.334923 0.584908 3.008326 -13.821221 -4e-06 2e-06 -23.88718 -0.249081 -0.839478 -3.621682 1.152815 -0.008266 -0.294026 1.679689 0.833256 -14.218215 0.093212 1.300581 -34.212067 -0.287567 0.967174 -20.033222 0.964534 1.212848 -0.0 0.0 -0.0 -3.44039 0.788232 0.501657 -15.928192 -3.167312 2.99971 -6.33883 -2e-06 0.0 -18.123453 3.648181 -4.905673 -4e-06 1e-06 -2e-06 0.031326 2.678718 0.709247 -26.828802 46.181633 -20.691784 2.086803 2.253587 -0.078917 -3.161835 -0.384104 -1.89403 2.24354 -5.255037 -3.18016 14.282896 -0.826596 6.952501 -2e-06 -12.690602 -0.0 0.566064 -0.964003 0.276788 1.665666 -1.955922 -2.878298 4.727802 -4.170588 4.993926 11.020531 3e-06 1e-06 12.109056 -3.735717 -2.866782 0.0 -2e-06 -2e-06 1.291986 -1.928549 -1.49809 14.800132 0.567467 3.865607 14.242573 -1.341736 -6.66066 19.631973 0.143924 -0.648245 2.231313 -0.118291 -0.356299 0.353029 -1.511151 -0.03194 20.222799 3.684311 2.316633 18.787283 4e-06 1e-06 10.751633 -0.47987 1.397907 1e-06 1e-06 -1e-06 3.273808 0.305947 -0.580111 21.486824 11.830373 2.266134 8.162931 2e-06 -0.0 18.39909 -3.798985 -4.940574 3e-06 -0.0 -1e-06 77.555351 -27.079258 9.365396 0.272142 -32.428398 -1.699442 -4.164062 -2.085826 2.73849 0.281547 0.006823 0.651074 -0.0 1e-06 2e-06 -19.787844 -4.75789 -2.708009 93.583145 -32.407421 22.38883 5.23824 -1.863179 -3.925961 -0.025247 -0.106377 -1.12679 -0.0 1e-06 -1e-06 
0.0 0.0 0.0 0.0 -0.0 0.0 4.207153 100.104416 169.168716 -0.108679 0.392181 -0.844962 -0.265562 0.464521 0.39784 -0.167336 0.291168 0.32808 0.203138 45.093632 78.359261 0.763721 0.084898 0.095973 -0.150897 -0.36138 -0.064919 -0.558596 -0.351703 -0.766913 7.7e-05 -2.3e-05 6e-06 0.003942 -0.015974 0.009531 -0.022072 -0.102492 -0.133043 0.024425 0.070654 -0.209521 0.139397 0.903558 1.00809 35.792423 -3.580153 -29.255295 0.620848 4.256018 0.332115 5.740952 5.336423 3.266014 -5.882108 9.861286 0.70259 -10.936875 -0.360575 7.156207 1e-06 8.774826 -1e-06 -0.220349 0.515016 -0.360901 -1.844033 2.498505 -2.507279 -10.163602 4.678945 4.621109 -20.97603 -3e-06 3e-06 -21.226292 2.451696 -3.594 1e-06 -5e-06 -1e-06 -1.362682 2.2408 -0.746324 -21.334921 0.58491 3.008323 -13.821218 -2e-06 2e-06 -23.887177 -0.249078 -0.839483 -0.377685 0.455147 0.113924 -0.294025 1.679686 0.833256 -14.218215 0.093215 1.300583 -34.212063 -0.287564 0.967171 -20.033218 0.964537 1.212844 -1e-06 1e-06 1e-06 -3.440389 0.788234 0.501655 -15.928191 -3.16731 2.999707 -6.338826 -1e-06 1e-06 -18.123449 3.648183 -4.905673 -4e-06 0.0 -2e-06 -0.063098 1.261626 -0.00086 -25.120447 51.896675 -18.460649 0.782137 1.544973 -0.017608 -3.772949 0.744383 -2.028505 2.243542 -5.255039 -3.18016 14.282896 -0.826597 6.952507 -1e-06 -12.69061 2e-06 -0.391979 -0.270215 0.178183 1.665666 -1.955924 -2.8783 4.7278 -4.170591 4.993929 11.020531 4e-06 -0.0 12.109058 -3.735717 -2.866784 -1e-06 1e-06 -1e-06 1.291987 -1.928548 -1.498091 14.800134 0.567467 3.865611 14.242577 -1.341736 -6.660661 19.631973 0.143925 -0.648246 0.220953 -0.01255 -0.126176 0.353028 -1.511152 -0.031938 20.222801 3.68431 2.316631 18.787279 4e-06 -1e-06 10.751633 -0.479872 1.397905 -0.0 0.0 -2e-06 3.273805 0.305945 -0.580112 21.486818 11.830377 2.266133 8.16293 1e-06 -0.0 18.399092 -3.798988 -4.940576 2e-06 -1e-06 -1e-06 76.942963 -27.237648 12.858151 0.336216 -33.357456 -2.586413 -1.867301 -1.735573 2.472142 0.10695 -0.014545 0.146697 -0.0 0.0 2e-06 -20.93498 -2.79996 -3.314312 99.511749 -34.011875 21.218899 1.750823 0.136939 -1.157374 0.042045 -0.02457 -0.426527 -0.0 1e-06 -1e-06 
0.0 0.0 0.0 0.0 -0.0 0.0 4.33491 100.0 171.320114 0.0 -0.0 0.0 0.0 -0.0 0.0 0.0 -0.0 0.0 -6.1e-05 45.89996 78.299873 0.0 -0.0 0.0 0.0 0.0 0.0 -0.0 0.0 0.0 7.7e-05 -2.2e-05 7e-06 0.0 -0.0 0.0 0.0 -0.0 0.0 0.0 -0.0 0.0 0.0 -0.0 0.0 28.802683 -10.551089 -20.602297 1.359553 1.248425 0.014994 0.0 -0.0 1e-06 -5.882107 9.861285 0.702589 -10.936873 -0.360576 7.156209 1e-06 8.774825 -1e-06 0.0 -0.0 -1e-06 -1.844033 2.498504 -2.507279 -10.163602 4.678946 4.621112 -20.976027 -4e-06 4e-06 -21.226292 2.451696 -3.594002 0.0 -5e-06 1e-06 -1.362682 2.240799 -0.746324 -21.334919 0.584908 3.008327 -13.821215 -2e-06 4e-06 -23.887178 -0.24908 -0.83948 0.0 0.0 0.0 -0.294024 1.679687 0.833255 -14.218211 0.093214 1.300583 -34.212055 -0.287565 0.967174 -20.033215 0.964538 1.212847 0.0 1e-06 0.0 -3.440389 0.788234 0.501656 -15.928189 -3.16731 2.999711 -6.338827 -1e-06 2e-06 -18.123453 3.648181 -4.905671 -6e-06 0.0 -3e-06 0.0 -0.0 0.0 -18.723444 56.193546 -9.541156 -0.33556 1.629099 -0.036171 0.0 0.0 1e-06 2.24354 -5.255035 -3.180157 14.282892 -0.826596 6.952505 -2e-06 -12.690603 -1e-06 -0.0 0.0 -1e-06 1.665667 -1.955921 -2.878298 4.727798 -4.170587 4.993924 11.020526 3e-06 -0.0 12.109052 -3.735715 -2.866783 0.0 -0.0 -1e-06 1.291986 -1.92855 -1.498089 14.800131 0.56747 3.865609 14.242568 -1.341734 -6.660654 19.631968 0.143922 -0.648243 -1e-06 -1e-06 -0.0 0.353029 -1.51115 -0.03194 20.22279 3.684311 2.316633 18.787273 5e-06 2e-06 10.751629 -0.479868 1.397907 -0.0 -1e-06 2e-06 3.273807 0.305947 -0.580109 21.486816 11.830374 2.266134 8.162928 2e-06 -0.0 18.399086 -3.798986 -4.940574 3e-06 0.0 -0.0 76.319939 -26.340609 14.222979 0.109801 -33.754066 -2.825401 -0.0 -0.0 -0.0 0.0 1e-06 -0.0 -0.0 -0.0 2e-06 -21.210516 -1.693347 -4.131108 102.514374 -34.829235 20.626646 0.0 0.0 -0.0 0.0 0.0 -0.0 0.0 1e-06 -1e-06 
